<?xml version="1.0" standalone="no"?>
<!DOCTYPE svg PUBLIC "-//W3C//DTD SVG 20010904//EN"
 "http://www.w3.org/TR/2001/REC-SVG-20010904/DTD/svg10.dtd">
<svg version="1.0" xmlns="http://www.w3.org/2000/svg"
 width="687.000000pt" height="1280.000000pt" viewBox="0 0 687.000000 1280.000000"
 preserveAspectRatio="xMidYMid meet">

<g transform="translate(0.000000,1280.000000) scale(0.100000,-0.100000)"
fill="#000000" stroke="none">
<path d="M1054 12785 c-103 -22 -157 -58 -230 -150 -51 -65 -66 -77 -149 -121
-175 -91 -288 -195 -455 -419 -194 -259 -214 -309 -214 -535 -1 -80 7 -251 16
-380 9 -129 22 -341 28 -470 6 -129 15 -280 20 -335 38 -397 35 -900 -6 -1270
-45 -403 -43 -531 12 -602 27 -36 20 -36 274 -6 89 10 164 13 220 8 105 -8
404 -58 750 -125 629 -122 873 -165 1065 -190 141 -17 178 -28 360 -100 94
-37 190 -74 214 -81 40 -12 45 -11 57 6 19 25 18 18 -11 -159 -13 -83 -29
-185 -35 -226 -7 -43 -14 -288 -17 -580 -5 -543 -5 -553 51 -920 30 -196 62
-394 75 -470 19 -105 51 -306 71 -445 27 -182 28 -187 43 -179 7 4 5 -1 -4
-12 -9 -10 -25 -66 -37 -124 -51 -256 -65 -325 -97 -480 -19 -91 -41 -201 -50
-245 -17 -89 -45 -310 -75 -610 -45 -436 -80 -699 -134 -1002 -107 -593 -130
-911 -123 -1673 2 -286 3 -520 2 -520 -2 0 -49 29 -106 65 -56 36 -110 65
-120 65 -38 0 -567 -193 -849 -310 -91 -38 -177 -72 -192 -75 -16 -4 -28 -11
-28 -16 0 -13 86 -68 132 -85 57 -21 129 -14 299 31 157 40 334 71 464 80 88
6 92 5 175 -31 47 -20 102 -43 123 -50 75 -28 159 7 245 101 99 108 132 228
132 484 0 314 18 704 70 1521 59 923 87 1185 180 1700 22 118 46 262 55 320
15 100 112 591 119 597 2 2 26 -45 53 -104 50 -106 54 -111 189 -243 240 -234
388 -354 659 -533 189 -125 280 -199 436 -359 l116 -119 7 -61 c10 -94 7 -441
-4 -563 -6 -60 -26 -222 -45 -360 -73 -529 -104 -874 -121 -1345 l-6 -185 40
-100 c49 -124 137 -383 152 -450 12 -52 34 -85 57 -85 9 0 12 7 7 24 -9 36 62
134 142 198 81 65 97 91 123 197 13 51 42 125 74 185 59 112 77 127 178 146
65 13 257 -3 337 -27 29 -9 101 -40 159 -69 59 -30 108 -53 109 -51 25 30 214
294 214 300 0 5 -61 37 -135 73 -114 54 -150 66 -236 80 -64 10 -139 15 -203
12 -192 -7 -267 -68 -484 -391 -72 -109 -134 -192 -137 -185 -2 7 -23 67 -46
133 -22 66 -56 160 -76 210 l-36 89 12 111 c14 126 54 366 140 840 120 663
143 949 96 1216 -22 122 -35 159 -84 229 -133 191 -308 373 -636 660 -366 320
-591 553 -776 803 l-87 117 -69 -84 c-37 -47 -71 -85 -74 -86 -3 0 4 43 17 95
16 68 20 103 14 123 -5 15 -18 95 -30 177 -12 83 -30 197 -40 255 -10 58 -23
137 -30 175 -6 39 -18 108 -26 155 -90 525 -94 568 -94 1090 0 489 11 701 44
858 9 40 16 89 16 108 0 19 4 34 8 34 5 0 23 -20 41 -45 23 -32 39 -45 56 -45
13 0 132 36 265 81 226 75 251 82 403 100 320 37 452 57 1112 164 938 153
1039 163 1331 131 212 -23 242 -21 271 22 54 81 54 217 4 617 -35 269 -38 413
-21 830 21 499 70 1194 100 1423 24 175 7 342 -45 448 -73 149 -396 501 -535
583 -41 24 -140 86 -220 138 -273 178 -407 229 -627 240 -153 8 -187 -3 -266
-85 -99 -101 -105 -115 -151 -312 -39 -168 -50 -274 -50 -460 0 -178 10 -268
46 -420 25 -105 45 -146 97 -193 51 -46 92 -63 208 -88 367 -77 656 -26 886
156 56 45 151 161 205 254 l27 46 3 -80 c3 -81 -17 -403 -43 -705 -62 -709
-68 -806 -68 -1150 0 -343 14 -573 43 -745 10 -60 21 -150 24 -199 l6 -89 -42
35 c-80 65 -91 68 -270 68 -299 0 -598 -35 -1228 -141 -552 -94 -530 -90 -970
-154 -212 -31 -402 -60 -422 -66 -21 -5 -61 -31 -91 -59 l-53 -49 18 117 c33
216 50 336 68 477 9 77 30 215 45 306 l29 167 90 27 c198 59 334 145 523 331
216 213 417 531 560 884 80 196 172 453 187 522 39 171 49 421 22 571 -33 183
-105 364 -185 464 -70 87 -201 176 -310 209 -119 36 -319 -3 -590 -115 l-74
-30 -71 19 c-179 49 -269 62 -461 67 -166 4 -203 2 -291 -16 -171 -35 -274
-69 -414 -137 -167 -81 -281 -156 -352 -233 -340 -367 -542 -941 -484 -1376
34 -257 99 -439 207 -581 236 -311 421 -447 756 -554 225 -72 436 -120 530
-120 67 0 83 -3 83 -15 0 -8 -15 -106 -34 -217 -19 -112 -40 -250 -46 -308 -7
-58 -20 -159 -31 -225 -10 -66 -19 -138 -19 -160 0 -67 -12 -70 -54 -15 -51
67 -85 85 -191 103 -445 76 -630 110 -1020 187 -691 137 -857 160 -1135 161
-173 0 -178 -1 -242 -59 l-41 -37 7 115 c4 63 11 133 16 155 38 159 54 955 26
1290 -14 167 -20 265 -46 810 -6 110 -14 243 -20 295 -11 113 -13 280 -2 279
4 0 36 -50 72 -111 107 -183 225 -278 420 -340 147 -45 449 -20 586 50 136 69
186 245 188 652 1 197 -3 259 -21 380 -36 233 -50 278 -116 366 -61 84 -102
113 -173 124 -81 13 -207 11 -280 -5z m128 -242 c83 -143 125 -689 74 -966
-18 -96 -62 -216 -82 -224 -18 -7 -170 67 -219 106 -57 46 -107 112 -170 221
-62 109 -95 196 -95 251 l0 38 -95 3 -95 3 56 70 c31 39 74 95 96 125 97 132
253 261 390 324 40 18 82 43 92 55 25 27 28 27 48 -6z m4388 -38 c15 -14 57
-37 95 -50 166 -61 346 -202 541 -425 l84 -95 -48 -7 c-26 -3 -72 -7 -103 -7
l-56 -1 -12 -60 c-7 -33 -33 -101 -58 -151 -80 -160 -261 -317 -441 -381 -63
-23 -63 -23 -78 -3 -19 25 -69 182 -83 260 -48 255 -27 572 55 817 23 70 56
128 72 128 3 0 18 -11 32 -25z m-1559 -265 c87 -16 188 -70 262 -140 93 -87
140 -162 181 -288 56 -175 70 -260 70 -417 0 -186 -31 -331 -124 -590 -180
-498 -432 -920 -692 -1156 -137 -125 -178 -156 -230 -174 -56 -18 -81 -16
-273 32 -454 112 -631 198 -840 407 -188 189 -274 334 -330 558 -69 275 -64
494 19 779 54 186 131 349 247 524 127 191 235 297 383 376 l59 32 116 -7
c127 -7 289 -29 391 -52 88 -20 361 -101 421 -124 l48 -19 177 73 176 73 -86
32 c-48 17 -89 31 -92 31 -3 0 -31 8 -62 17 l-57 17 70 12 c94 15 104 16 166
4z"/>
</g>
</svg>
